<svg xmlns="http://www.w3.org/2000/svg" xmlns:xlink="http://www.w3.org/1999/xlink" viewBox="0 0 701.27 138.49"><defs><style>.a{fill:url(#a);}.b{fill:url(#b);}.c{fill:#00a2a5;}.d{fill:#b3b3b3;}.e{fill:url(#c);}.f{font-size:104.35px;}.f,.g{fill:gray;font-family:Lato-Bold, Lato;font-weight:700;}.g{font-size:130.43px;}.h{fill:url(#d);}.i{font-size:70.53px;fill:#fff;font-family:JustAnotherHand-Regular, Just Another Hand;letter-spacing:0.05em;}</style><linearGradient id="a" x1="87.05" y1="300.87" x2="166.8" y2="221.12" gradientTransform="matrix(1, -0.01, 0.01, 1, -1.4, 2.22)" gradientUnits="userSpaceOnUse"><stop offset="0" stop-color="gray"/><stop offset="1" stop-color="#b3b3b3"/></linearGradient><linearGradient id="b" x1="225.67" y1="246.74" x2="225.67" y2="310.74" gradientTransform="matrix(1, -0.01, 0.01, 1, -0.33, -195.73)" gradientUnits="userSpaceOnUse"><stop offset="0" stop-color="#939393"/><stop offset="1" stop-color="gray"/></linearGradient><linearGradient id="c" x1="265.59" y1="256.76" x2="311.98" y2="256.76" gradientTransform="matrix(1, -0.01, 0.01, 1, -0.33, -195.73)" gradientUnits="userSpaceOnUse"><stop offset="0" stop-color="#b3b3b3"/><stop offset="1" stop-color="gray"/></linearGradient><linearGradient id="d" x1="513.07" y1="341.77" x2="663.9" y2="190.94" gradientTransform="matrix(1, -0.01, 0.01, 1, -1.4, 2.22)" gradientUnits="userSpaceOnUse"><stop offset="0" stop-color="#3ab3ba"/><stop offset="1" stop-color="#125567"/></linearGradient></defs><title>logo_dev_myshirts</title><path class="a" d="M98,278.33l-1.21-43.1-.12-20.81,36.32-.21c15.82-.09,28,3.23,36.71,11.28s13,19.58,13.11,34.87c.09,16.45-4.37,28.94-13.38,37.9s-21.71,13.87-38.12,14l-34.09.2-.11-20.28,28.83.11,5.93,0a22.16,22.16,0,0,0,17.76-8.37c3.75-4.71,5.59-13,5.53-22.7-.05-9-1.87-15.51-5.47-19.85s-9-6.13-16.32-6.09l-7.75,0-.42,23.37S124.5,279.26,98,278.33Z" transform="translate(1.07 -197.95)"/><polygon class="b" points="223.1 74.76 253.1 74.59 252.96 49.59 198.56 49.9 198.83 113.9 255.32 113.58 255.21 93.58 223.21 93.76 223.1 74.76"/><polygon class="c" points="332.46 13.15 301.44 113.32 330.52 113.16 362.26 12.98 332.46 13.15"/><rect class="d" x="196.77" y="213.7" width="55" height="23" transform="translate(-0.19 -196.69) rotate(-0.32)"/><polygon class="e" points="296.39 15.35 266.45 15.52 298.26 103.4 313.08 58.07 296.39 15.35"/><text class="f" transform="translate(352.44 102.22) rotate(-0.32)">/</text><text class="g" transform="translate(386.69 112.79) rotate(-0.32)">&gt;</text><text class="g" transform="matrix(-1, 0.01, 0.01, 1, 76.28, 114.53)">&gt;</text><path class="h" d="M691.16,220.09l-205.53,1.15a9.18,9.18,0,0,0-8.83,9.14l.11,19.66-14.67,14.83,14.83,14.68.13,22.13a8.77,8.77,0,0,0,8.93,8.56l205.53-1.16a8.51,8.51,0,0,0,8.54-8.65l-.4-71.3C699.77,224.32,696,220.06,691.16,220.09Z" transform="translate(1.07 -197.95)"/><text class="i" transform="translate(505.56 82.7) rotate(-0.32)">my shirts</text></svg>